<svg xmlns="http://www.w3.org/2000/svg" width="18.924" height="15.907" viewBox="0 0 18.924 15.907">
  <g id="Group_8829" data-name="Group 8829" transform="translate(-195.44 -1401.498)">
    <g id="Group_8827" data-name="Group 8827" transform="translate(195.44 1401.498)" opacity="0.9">
      <path id="Path_8829" data-name="Path 8829" d="M783.9,232.225V219.305a1.107,1.107,0,0,0-.226-.67,11.818,11.818,0,0,0-5.235-.139.7.7,0,0,0-.549.677V232a.692.692,0,0,0,.822.679,11.976,11.976,0,0,1,4.976.2,1.107,1.107,0,0,0,.212-.651Z" transform="translate(-777.89 -218.263)" fill="#fff"/>
      <g id="Group_8602" data-name="Group 8602" transform="translate(9.462 0.06)">
        <path id="Path_8830" data-name="Path 8830" d="M965.16,219.443l-.145-.03a15.256,15.256,0,0,0-5.516,1.7V235.26a.681.681,0,0,0,.308-.074,15.218,15.218,0,0,1,5.8-1.58.7.7,0,0,0,.115-.384V220.134a.709.709,0,0,0-.56-.691Z" transform="translate(-959.499 -219.413)" fill="#fff"/>
      </g>
    </g>
    <path id="Path_9494" data-name="Path 9494" d="M888.158,225.769a15.166,15.166,0,0,0-3.921-1.444,1.1,1.1,0,0,1,.332.789v12.8a1.1,1.1,0,0,1-.23.673,15.779,15.779,0,0,1,3.511,1.257.682.682,0,0,0,.308.074V225.769Z" transform="translate(-683.256 1177.489)" fill="#fff"/>
    <g id="Group_8828" data-name="Group 8828" transform="translate(209.757 1401.498)">
      <path id="Path_8832" data-name="Path 8832" d="M1056.739,218.5a11.189,11.189,0,0,0-4.058-.09q.233.039.468.09a.7.7,0,0,1,.549.677V232a.687.687,0,0,1-.281.555,10.953,10.953,0,0,1,3.049.124.692.692,0,0,0,.822-.679V219.173A.7.7,0,0,0,1056.739,218.5Z" transform="translate(-1052.681 -218.263)" fill="#fff"/>
    </g>
  </g>
</svg>
