
    <svg
      id="Group_8880"
      data-name="Group 8880"
      xmlns="http://www.w3.org/2000/svg"
      width="19.982"
      height="14.961"
      viewBox="0 0 19.982 14.961"
    >
      <path
        id="Path_8850"
        data-name="Path 8850"
        d="M1544.644,851.837a.529.529,0,0,1-.174-.03l-6.7-2.329a.324.324,0,0,0-.4.347v4.737a.36.36,0,0,0,.22.346l6.962,2.482a.272.272,0,0,0,.184,0l6.962-2.482a.36.36,0,0,0,.22-.346v-4.737a.324.324,0,0,0-.4-.347l-6.7,2.329A.528.528,0,0,1,1544.644,851.837Z"
        transform="translate(-1534.653 -842.446)"
        fill="#fff"
      />
      <path
        id="Path_8851"
        data-name="Path 8851"
        d="M1542.572,809.791l-9.653-3.434a.287.287,0,0,0-.194,0l-9.653,3.434a.426.426,0,0,0,0,.768l9.653,3.434a.288.288,0,0,0,.194,0l9.653-3.434A.426.426,0,0,0,1542.572,809.791Z"
        transform="translate(-1522.831 -806.34)"
        fill="#fff"
      />
    </svg>